<?xml version="1.0" encoding="UTF-8"?>
<svg version="1.1" xmlns="http://www.w3.org/2000/svg" width="32" height="32">
<path d="M0 0 C2.0625 2.1875 2.0625 2.1875 3 5 C2.375 8.1875 2.375 8.1875 1 11 C-2 13 -2 13 -5.5625 12.75 C-9 12 -9 12 -11 10 C-11.67681895 2.89340102 -11.67681895 2.89340102 -9.4375 -0.0625 C-5.874103 -1.43303731 -3.6365931 -1.05791799 0 0 Z M-5 4 C-5 5.32 -5 6.64 -5 8 C-4.34 7.67 -3.68 7.34 -3 7 C-3.33 6.01 -3.66 5.02 -4 4 C-4.33 4 -4.66 4 -5 4 Z " fill="#3176FC" transform="translate(18,10)"/>
<path d="M0 0 C3.3 0 6.6 0 10 0 C10 1.65 10 3.3 10 5 C9.34 5 8.68 5 8 5 C8 8.63 8 12.26 8 16 C6.35 16 4.7 16 3 16 C3 12.37 3 8.74 3 5 C2.01 5 1.02 5 0 5 C0 3.35 0 1.7 0 0 Z " fill="#295ECB" transform="translate(22,8)"/>
<path d="M0 0 C1.98567708 0.29296875 3.97135417 0.5859375 5.95703125 0.87890625 C8.2025342 1.13904799 8.2025342 1.13904799 11 0 C12.5625 1.8125 12.5625 1.8125 14 4 C13.67 4.99 13.34 5.98 13 7 C7.13245325 9.12445658 3.80184623 9.17569234 -2 7 C-2 3 -2 3 0 0 Z " fill="#2CE2E4" transform="translate(8,22)"/>
<path d="M0 0 C0 4 0 4 -1.0625 5.8125 C-4.08168626 7.662969 -6.62076974 6.60343397 -10 6 C-10.99 6.33 -11.98 6.66 -13 7 C-14.5625 5.1875 -14.5625 5.1875 -16 3 C-15.67 2.01 -15.34 1.02 -15 0 C-9.23529888 -2.47058619 -5.73947543 -1.81246592 0 0 Z " fill="#2DE2E4" transform="translate(21,3)"/>
<path d="M0 0 C1.65 0 3.3 0 5 0 C5 5.28 5 10.56 5 16 C3.35 16 1.7 16 0 16 C0 10.72 0 5.44 0 0 Z " fill="#3376FF" transform="translate(0,8)"/>
<path d="M0 0 C5 2 5 2 6.5 4.8125 C7 8 7 8 5.875 10.8125 C4 13 4 13 0 14 C0 9.38 0 4.76 0 0 Z " fill="#275ECB" transform="translate(14,9)"/>
<path d="M0 0 C1.32 1.32 2.64 2.64 4 4 C3.67 4.99 3.34 5.98 3 7 C0.69 7.33 -1.62 7.66 -4 8 C-4 6.02 -4 4.04 -4 2 C-2.68 1.34 -1.36 0.68 0 0 Z " fill="#27AFCC" transform="translate(18,22)"/>
<path d="M0 0 C2.31 0.33 4.62 0.66 7 1 C7 5 7 5 5.5 6.75 C5.005 7.1625 4.51 7.575 4 8 C2.68 7.34 1.36 6.68 0 6 C0 4.02 0 2.04 0 0 Z " fill="#26AFCC" transform="translate(14,2)"/>
</svg>
